<svg width="20" height="14" viewBox="0 0 20 14" fill="none" xmlns="http://www.w3.org/2000/svg">
<path d="M2.49991 4.53127C2.49982 3.84237 2.67999 3.16425 3.0242 2.55791C3.36841 1.95156 3.86588 1.43601 4.47185 1.05762C5.07783 0.679222 5.77331 0.449858 6.49574 0.390152C7.21817 0.330446 7.94489 0.442271 8.61055 0.715569C9.2762 0.988868 9.85991 1.41507 10.3092 1.95584C10.7584 2.4966 11.0591 3.13498 11.1843 3.81355C11.3094 4.49211 11.255 5.18959 11.026 5.84324C10.7971 6.49689 10.4006 7.08622 9.87241 7.55821C10.8684 8.01737 11.7332 8.69792 12.3934 9.54218C13.0536 10.3864 13.4898 11.3695 13.6649 12.408C13.6842 12.5235 13.6793 12.6415 13.6506 12.7553C13.6219 12.8691 13.5698 12.9764 13.4975 13.071C13.4251 13.1657 13.3338 13.2459 13.2288 13.3071C13.1238 13.3682 13.0072 13.4091 12.8855 13.4274C12.7639 13.4458 12.6397 13.4411 12.5199 13.4138C12.4001 13.3866 12.2872 13.3371 12.1876 13.2684C12.0879 13.1996 12.0035 13.1129 11.9391 13.0131C11.8748 12.9134 11.8317 12.8026 11.8124 12.687C11.6249 11.5711 11.0248 10.5553 10.1199 9.82194C9.21492 9.08857 8.0644 8.68571 6.87491 8.68571C5.68543 8.68571 4.53491 9.08857 3.62995 9.82194C2.725 10.5553 2.1249 11.5711 1.93741 12.687C1.91804 12.8026 1.8749 12.9134 1.81046 13.0131C1.74602 13.1128 1.66153 13.1995 1.56182 13.2682C1.46212 13.3369 1.34914 13.3863 1.22935 13.4135C1.10956 13.4407 0.9853 13.4452 0.863663 13.4268C0.742026 13.4084 0.625395 13.3675 0.52043 13.3062C0.415465 13.245 0.324221 13.1647 0.251907 13.07C0.179593 12.9753 0.127627 12.868 0.0989737 12.7542C0.0703208 12.6404 0.065543 12.5223 0.0849129 12.4068C0.260331 11.3687 0.696632 10.3861 1.35683 9.54224C2.01702 8.69842 2.88165 8.01825 3.87741 7.5594C3.442 7.171 3.0951 6.70187 2.85817 6.18102C2.62123 5.66017 2.4993 5.09868 2.49991 4.53127ZM13.7499 2.75002C14.4762 2.75051 15.1867 2.95126 15.7952 3.32792C16.4037 3.70458 16.884 4.24094 17.1778 4.87191C17.4717 5.50287 17.5664 6.2013 17.4505 6.88241C17.3346 7.56352 17.013 8.19802 16.5249 8.7089C17.2858 9.06774 17.9618 9.56989 18.5119 10.1848C19.0621 10.7997 19.4748 11.5145 19.7249 12.2856C19.7745 12.4354 19.7814 12.5949 19.7451 12.7479C19.7088 12.901 19.6305 13.0423 19.5182 13.1573C19.4058 13.2724 19.2634 13.3572 19.1054 13.403C18.9475 13.4489 18.7795 13.4542 18.6187 13.4185C18.4579 13.383 18.3099 13.3078 18.1895 13.2007C18.069 13.0935 17.9803 12.9582 17.9324 12.8081C17.7084 12.1196 17.3001 11.4982 16.7476 11.0044C16.195 10.5107 15.517 10.1617 14.7799 9.9914C14.5752 9.94445 14.3931 9.8334 14.2629 9.67615C14.1328 9.51889 14.0621 9.32458 14.0624 9.12452V8.70652C14.0623 8.54071 14.1109 8.37816 14.2028 8.23717C14.2947 8.09619 14.4261 7.98237 14.5824 7.90852C14.9614 7.73011 15.2657 7.43522 15.446 7.07175C15.6262 6.70828 15.6719 6.29759 15.5754 5.90638C15.479 5.51517 15.2462 5.16643 14.9148 4.91679C14.5834 4.66716 14.1729 4.5313 13.7499 4.53127C13.5013 4.53127 13.2628 4.43744 13.087 4.27042C12.9112 4.10339 12.8124 3.87686 12.8124 3.64065C12.8124 3.40444 12.9112 3.17791 13.087 3.01088C13.2628 2.84386 13.5013 2.75002 13.7499 2.75002ZM6.87491 2.15627C6.54199 2.14912 6.21092 2.20523 5.90113 2.3213C5.59135 2.43738 5.3091 2.61108 5.07095 2.8322C4.8328 3.05333 4.64355 3.31743 4.51432 3.609C4.38509 3.90056 4.31848 4.21371 4.31839 4.53007C4.31831 4.84643 4.38476 5.15962 4.51384 5.45124C4.64291 5.74287 4.83202 6.00706 5.07005 6.2283C5.30808 6.44954 5.59025 6.62337 5.89997 6.73959C6.20969 6.85582 6.54074 6.91208 6.87366 6.90509C7.52687 6.89136 8.14846 6.63526 8.60538 6.19159C9.06229 5.74792 9.31823 5.15195 9.31839 4.53126C9.31856 3.91057 9.06293 3.31448 8.60625 2.87059C8.14956 2.42671 7.52811 2.17031 6.87491 2.15627Z" fill="#999999"/>
</svg>
