<svg width="222" height="48" viewBox="0 0 222 48" fill="none" xmlns="http://www.w3.org/2000/svg">
<path d="M6.22727 12.7273L11.8523 30.4091H12.0682L17.7045 12.7273H23.1591L15.1364 36H8.79545L0.761364 12.7273H6.22727ZM28.9091 36.3295C27.7955 36.3295 26.803 36.1364 25.9318 35.75C25.0606 35.3561 24.3712 34.7765 23.8636 34.0114C23.3636 33.2386 23.1136 32.2765 23.1136 31.125C23.1136 30.1553 23.2917 29.3409 23.6477 28.6818C24.0038 28.0227 24.4886 27.4924 25.1023 27.0909C25.7159 26.6894 26.4129 26.3864 27.1932 26.1818C27.9811 25.9773 28.8068 25.8333 29.6705 25.75C30.6856 25.6439 31.5038 25.5455 32.125 25.4545C32.7462 25.3561 33.197 25.2121 33.4773 25.0227C33.7576 24.8333 33.8977 24.553 33.8977 24.1818V24.1136C33.8977 23.3939 33.6705 22.8371 33.2159 22.4432C32.7689 22.0492 32.1326 21.8523 31.3068 21.8523C30.4356 21.8523 29.7424 22.0455 29.2273 22.4318C28.7121 22.8106 28.3712 23.2879 28.2045 23.8636L23.7273 23.5C23.9545 22.4394 24.4015 21.5227 25.0682 20.75C25.7348 19.9697 26.5947 19.3712 27.6477 18.9545C28.7083 18.5303 29.9356 18.3182 31.3295 18.3182C32.2992 18.3182 33.2273 18.4318 34.1136 18.6591C35.0076 18.8864 35.7992 19.2386 36.4886 19.7159C37.1856 20.1932 37.7348 20.8068 38.1364 21.5568C38.5379 22.2992 38.7386 23.1894 38.7386 24.2273V36H34.1477V33.5795H34.0114C33.7311 34.125 33.3561 34.6061 32.8864 35.0227C32.4167 35.4318 31.8523 35.7538 31.1932 35.9886C30.5341 36.2159 29.7727 36.3295 28.9091 36.3295ZM30.2955 32.9886C31.0076 32.9886 31.6364 32.8485 32.1818 32.5682C32.7273 32.2803 33.1553 31.8939 33.4659 31.4091C33.7765 30.9242 33.9318 30.375 33.9318 29.7614V27.9091C33.7803 28.0076 33.572 28.0985 33.3068 28.1818C33.0492 28.2576 32.7576 28.3295 32.4318 28.3977C32.1061 28.4583 31.7803 28.5152 31.4545 28.5682C31.1288 28.6136 30.8333 28.6553 30.5682 28.6932C30 28.7765 29.5038 28.9091 29.0795 29.0909C28.6553 29.2727 28.3258 29.5189 28.0909 29.8295C27.8561 30.1326 27.7386 30.5114 27.7386 30.9659C27.7386 31.625 27.9773 32.1288 28.4545 32.4773C28.9394 32.8182 29.553 32.9886 30.2955 32.9886ZM47.3352 12.7273V36H42.4943V12.7273H47.3352ZM59.1676 36.3409C57.3722 36.3409 55.8267 35.9773 54.5312 35.25C53.2434 34.5152 52.2509 33.4773 51.554 32.1364C50.857 30.7879 50.5085 29.1932 50.5085 27.3523C50.5085 25.5568 50.857 23.9811 51.554 22.625C52.2509 21.2689 53.232 20.2121 54.4972 19.4545C55.7699 18.697 57.2623 18.3182 58.9744 18.3182C60.1259 18.3182 61.1979 18.5038 62.1903 18.875C63.1903 19.2386 64.0616 19.7879 64.804 20.5227C65.554 21.2576 66.1373 22.1818 66.554 23.2955C66.9706 24.4015 67.179 25.697 67.179 27.1818V28.5114H52.4403V25.5114H62.6222C62.6222 24.8144 62.4706 24.197 62.1676 23.6591C61.8646 23.1212 61.4441 22.7008 60.9062 22.3977C60.3759 22.0871 59.7585 21.9318 59.054 21.9318C58.3191 21.9318 57.6676 22.1023 57.0994 22.4432C56.5388 22.7765 56.0994 23.2273 55.7812 23.7955C55.4631 24.3561 55.3002 24.9811 55.2926 25.6705V28.5227C55.2926 29.3864 55.4517 30.1326 55.7699 30.7614C56.0956 31.3902 56.554 31.875 57.1449 32.2159C57.7358 32.5568 58.4366 32.7273 59.2472 32.7273C59.785 32.7273 60.2775 32.6515 60.7244 32.5C61.1714 32.3485 61.554 32.1212 61.8722 31.8182C62.1903 31.5152 62.4328 31.1439 62.5994 30.7045L67.0767 31C66.8494 32.0758 66.3835 33.0152 65.679 33.8182C64.982 34.6136 64.0805 35.2348 62.9744 35.6818C61.8759 36.1212 60.607 36.3409 59.1676 36.3409Z" fill="#FFA800"/>
<path d="M122.273 36V12.7273H127.193V22.3295H137.182V12.7273H142.091V36H137.182V26.3864H127.193V36H122.273ZM153.943 36.3409C152.178 36.3409 150.652 35.9659 149.364 35.2159C148.083 34.4583 147.095 33.4053 146.398 32.0568C145.701 30.7008 145.352 29.1288 145.352 27.3409C145.352 25.5379 145.701 23.9621 146.398 22.6136C147.095 21.2576 148.083 20.2045 149.364 19.4545C150.652 18.697 152.178 18.3182 153.943 18.3182C155.708 18.3182 157.231 18.697 158.511 19.4545C159.799 20.2045 160.792 21.2576 161.489 22.6136C162.186 23.9621 162.534 25.5379 162.534 27.3409C162.534 29.1288 162.186 30.7008 161.489 32.0568C160.792 33.4053 159.799 34.4583 158.511 35.2159C157.231 35.9659 155.708 36.3409 153.943 36.3409ZM153.966 32.5909C154.769 32.5909 155.439 32.3636 155.977 31.9091C156.515 31.447 156.92 30.8182 157.193 30.0227C157.473 29.2273 157.614 28.322 157.614 27.3068C157.614 26.2917 157.473 25.3864 157.193 24.5909C156.92 23.7955 156.515 23.1667 155.977 22.7045C155.439 22.2424 154.769 22.0114 153.966 22.0114C153.155 22.0114 152.473 22.2424 151.92 22.7045C151.375 23.1667 150.962 23.7955 150.682 24.5909C150.409 25.3864 150.273 26.2917 150.273 27.3068C150.273 28.322 150.409 29.2273 150.682 30.0227C150.962 30.8182 151.375 31.447 151.92 31.9091C152.473 32.3636 153.155 32.5909 153.966 32.5909ZM174.966 18.5455V22.1818H164.455V18.5455H174.966ZM166.841 14.3636H171.682V30.6364C171.682 31.0833 171.75 31.4318 171.886 31.6818C172.023 31.9242 172.212 32.0947 172.455 32.1932C172.705 32.2917 172.992 32.3409 173.318 32.3409C173.545 32.3409 173.773 32.322 174 32.2841C174.227 32.2386 174.402 32.2045 174.523 32.1818L175.284 35.7841C175.042 35.8598 174.701 35.947 174.261 36.0455C173.822 36.1515 173.288 36.2159 172.659 36.2386C171.492 36.2841 170.47 36.1288 169.591 35.7727C168.72 35.4167 168.042 34.8636 167.557 34.1136C167.072 33.3636 166.833 32.4167 166.841 31.2727V14.3636ZM185.886 36.3409C184.091 36.3409 182.545 35.9773 181.25 35.25C179.962 34.5152 178.97 33.4773 178.273 32.1364C177.576 30.7879 177.227 29.1932 177.227 27.3523C177.227 25.5568 177.576 23.9811 178.273 22.625C178.97 21.2689 179.951 20.2121 181.216 19.4545C182.489 18.697 183.981 18.3182 185.693 18.3182C186.845 18.3182 187.917 18.5038 188.909 18.875C189.909 19.2386 190.78 19.7879 191.523 20.5227C192.273 21.2576 192.856 22.1818 193.273 23.2955C193.689 24.4015 193.898 25.697 193.898 27.1818V28.5114H179.159V25.5114H189.341C189.341 24.8144 189.189 24.197 188.886 23.6591C188.583 23.1212 188.163 22.7008 187.625 22.3977C187.095 22.0871 186.477 21.9318 185.773 21.9318C185.038 21.9318 184.386 22.1023 183.818 22.4432C183.258 22.7765 182.818 23.2273 182.5 23.7955C182.182 24.3561 182.019 24.9811 182.011 25.6705V28.5227C182.011 29.3864 182.17 30.1326 182.489 30.7614C182.814 31.3902 183.273 31.875 183.864 32.2159C184.455 32.5568 185.155 32.7273 185.966 32.7273C186.504 32.7273 186.996 32.6515 187.443 32.5C187.89 32.3485 188.273 32.1212 188.591 31.8182C188.909 31.5152 189.152 31.1439 189.318 30.7045L193.795 31C193.568 32.0758 193.102 33.0152 192.398 33.8182C191.701 34.6136 190.799 35.2348 189.693 35.6818C188.595 36.1212 187.326 36.3409 185.886 36.3409ZM201.898 12.7273V36H197.057V12.7273H201.898ZM220.298 23.5227L215.866 23.7955C215.791 23.4167 215.628 23.0758 215.378 22.7727C215.128 22.4621 214.798 22.2159 214.389 22.0341C213.988 21.8447 213.507 21.75 212.946 21.75C212.196 21.75 211.563 21.9091 211.048 22.2273C210.533 22.5379 210.276 22.9545 210.276 23.4773C210.276 23.8939 210.442 24.2462 210.776 24.5341C211.109 24.822 211.681 25.053 212.491 25.2273L215.651 25.8636C217.348 26.2121 218.613 26.7727 219.446 27.5455C220.279 28.3182 220.696 29.3333 220.696 30.5909C220.696 31.7348 220.359 32.7386 219.685 33.6023C219.018 34.4659 218.101 35.1402 216.935 35.625C215.776 36.1023 214.438 36.3409 212.923 36.3409C210.613 36.3409 208.772 35.8598 207.401 34.8977C206.037 33.928 205.238 32.6098 205.003 30.9432L209.764 30.6932C209.908 31.3977 210.257 31.9356 210.81 32.3068C211.363 32.6705 212.071 32.8523 212.935 32.8523C213.783 32.8523 214.465 32.6894 214.98 32.3636C215.503 32.0303 215.768 31.6023 215.776 31.0795C215.768 30.6402 215.582 30.2803 215.219 30C214.855 29.7121 214.295 29.4924 213.537 29.3409L210.514 28.7386C208.81 28.3977 207.541 27.8068 206.707 26.9659C205.882 26.125 205.469 25.053 205.469 23.75C205.469 22.6288 205.772 21.6629 206.378 20.8523C206.991 20.0417 207.851 19.4167 208.957 18.9773C210.071 18.5379 211.374 18.3182 212.866 18.3182C215.071 18.3182 216.806 18.7841 218.071 19.7159C219.344 20.6477 220.086 21.9167 220.298 23.5227Z" fill="white"/>
<path d="M86.0002 32C83.2002 31.067 79.9652 28.827 78.5242 26.575C78.3333 26.2624 78.2474 25.8969 78.2792 25.532L78.5242 21.782C78.5772 20.972 79.5342 20.542 80.1952 21.012C82.3302 22.529 86.2282 25 89.0002 25C96.0002 25 102 22.5 105 17" stroke="white" stroke-width="4" stroke-linecap="round" stroke-linejoin="round"/>
<path d="M96.0001 43C106 41 115.242 30.515 112.867 19.941L111.999 16V8L105.999 7C105.999 19.941 102.999 30 89.9991 32C84.0231 32.92 78.2941 31.614 73.8701 29.078L75.0001 36C77.0001 41 86.0001 45 96.0001 43Z" stroke="white" stroke-width="4" stroke-linecap="round" stroke-linejoin="round"/>
</svg>
